<?xml version="1.0" standalone="no"?>
<!DOCTYPE svg PUBLIC "-//W3C//DTD SVG 20010904//EN"
 "http://www.w3.org/TR/2001/REC-SVG-20010904/DTD/svg10.dtd">
<svg xmlns="http://www.w3.org/2000/svg" version="1.0" width="615.000000pt" height="659.000000pt" viewBox="0 0 615.000000 659.000000" preserveAspectRatio="xMidYMid meet">

<g transform="translate(0.000000,659.000000) scale(0.100000,-0.100000)" fill="#FFFFFF" stroke="#000000" stroke-width="20" stroke-linejoin="round" stroke-linecap="round" vector-effect="non-scaling-stroke">
<path d="M2855 6203 c-198 -10 -554 -63 -725 -107 -397 -103 -907 -384 -1192 -654 -219 -209 -428 -533 -488 -757 -28 -102 -38 -290 -20 -377 15 -80 50 -165 101 -249 72 -120 77 -141 94 -426 25 -438 54 -1021 80 -1648 25 -600 27 -627 47 -720 41 -192 241 -383 561 -535 329 -157 867 -307 1250 -349 310 -35 778 -32 1094 4 873 103 1574 447 1693 832 26 86 38 192 45 423 8 256 41 1038 60 1410 8 162 19 403 25 535 16 347 19 363 100 535 86 183 104 251 103 395 -2 285 -167 618 -457 923 -195 205 -584 454 -893 571 -348 132 -1006 218 -1478 194z m390 -153 c262 -16 566 -56 757 -101 l88 -21 10 -38 c16 -60 94 -120 211 -163 103 -39 149 -41 205 -11 l47 25 63 -31 c155 -76 331 -208 476 -356 243 -248 379 -476 430 -723 46 -219 -18 -409 -196 -586 -185 -184 -360 -270 -771 -379 -159 -42 -423 -127 -490 -157 l-30 -14 54 -3 c84 -5 293 25 556 80 277 57 341 80 523 183 73 41 139 75 147 75 20 0 21 14 -30 -1110 -13 -300 -29 -669 -35 -820 -23 -585 -24 -600 -55 -668 -15 -34 -32 -62 -38 -62 -6 0 -7 161 -2 480 4 313 4 480 -3 480 -5 0 -12 -24 -16 -53 -8 -65 -33 -501 -45 -785 -8 -175 -13 -219 -27 -240 -18 -28 -44 -51 -56 -52 -5 0 -8 163 -9 363 0 211 -4 350 -9 332 -8 -28 -41 -409 -56 -642 -6 -101 -7 -103 -40 -133 -19 -16 -39 -30 -44 -30 -6 0 -10 101 -10 265 0 146 -4 265 -9 265 -9 0 -24 -138 -43 -383 -13 -174 -21 -195 -79 -216 l-32 -11 8 479 c5 323 4 481 -3 485 -6 3 -13 -2 -16 -11 -7 -24 -23 -281 -36 -583 -16 -372 -18 -388 -43 -405 -12 -7 -34 -17 -49 -20 l-28 -7 0 198 c0 110 -4 205 -9 212 -12 19 -17 -16 -31 -188 -20 -254 -19 -250 -45 -260 -12 -5 -39 -12 -59 -15 l-36 -7 -1 168 c0 168 -10 273 -22 244 -7 -18 -24 -182 -33 -328 -8 -114 -13 -123 -81 -137 l-33 -7 -1 439 c0 405 -6 542 -22 503 -11 -27 -27 -339 -34 -649 l-6 -303 -33 -14 c-18 -8 -47 -14 -64 -14 -24 0 -30 4 -30 23 -3 232 -21 712 -28 719 -13 13 -21 -102 -29 -430 -7 -334 -6 -328 -85 -338 l-48 -7 -1 79 c-4 212 -15 394 -24 397 -6 1 -13 -58 -18 -153 -4 -85 -11 -195 -15 -245 l-7 -90 -53 -8 c-85 -14 -82 -19 -82 155 0 84 -4 160 -9 167 -14 21 -19 -7 -33 -184 l-13 -150 -37 -6 c-20 -3 -50 -4 -66 -1 l-29 4 -5 88 c-9 145 -36 145 -37 0 -1 -41 -5 -80 -9 -87 -4 -7 -36 -13 -72 -15 l-65 -3 -8 160 c-9 185 -13 213 -29 197 -6 -6 -13 -82 -17 -184 l-6 -173 -58 -3 c-32 -2 -64 2 -71 8 -10 7 -15 74 -20 241 -8 235 -17 307 -29 239 -4 -19 -11 -131 -17 -249 -7 -139 -14 -219 -22 -229 -9 -11 -25 -13 -62 -8 -27 3 -53 9 -58 14 -5 5 -13 174 -17 376 -8 336 -12 404 -25 365 -9 -27 -26 -346 -26 -489 0 -80 -3 -169 -6 -197 l-7 -53 -51 0 c-28 0 -56 4 -62 8 -7 4 -14 72 -18 177 -6 170 -16 249 -28 229 -6 -10 -28 -291 -28 -361 0 -31 -2 -33 -34 -33 -18 0 -48 3 -65 6 l-31 7 -1 476 c0 451 -6 593 -22 531 -9 -33 -37 -668 -37 -834 0 -72 -4 -137 -9 -145 -11 -18 -99 -8 -120 14 -11 11 -16 66 -21 255 -6 215 -11 263 -24 249 -6 -6 -26 -313 -26 -405 0 -46 -4 -85 -9 -88 -17 -11 -111 15 -120 32 -4 10 -11 94 -15 189 -6 170 -16 235 -29 200 -4 -10 -12 -98 -18 -198 l-12 -180 -31 7 c-17 3 -42 11 -56 18 -25 11 -25 14 -31 161 -4 83 -7 222 -8 310 -1 173 -9 265 -22 265 -15 0 -19 -62 -28 -378 -5 -172 -11 -316 -15 -319 -9 -9 -83 15 -101 33 -11 12 -15 37 -15 102 0 91 -18 323 -26 331 -12 12 -16 -23 -26 -205 -6 -110 -12 -200 -13 -202 -6 -8 -87 33 -95 49 -6 10 -10 87 -10 171 0 156 -16 437 -25 446 -3 3 -7 3 -9 1 -3 -3 -10 -138 -17 -302 -8 -196 -16 -297 -23 -297 -6 0 -25 9 -42 19 -40 25 -44 45 -44 255 0 212 -17 754 -26 819 -3 27 -10 45 -14 40 -4 -4 -12 -241 -18 -526 -5 -285 -12 -520 -15 -523 -9 -10 -75 35 -81 54 -3 9 -8 80 -11 157 -8 194 -25 442 -32 488 -4 27 -9 35 -16 28 -7 -7 -12 -122 -15 -311 -3 -165 -8 -300 -13 -300 -5 0 -23 13 -41 29 -32 28 -32 30 -35 132 -5 143 -41 820 -49 897 -3 34 -10 62 -15 62 -5 0 -10 -195 -11 -468 l-3 -467 -27 55 c-30 62 -25 -19 -68 1090 -11 283 -27 670 -35 860 -17 390 -19 590 -6 590 4 0 62 -24 127 -54 303 -137 398 -163 954 -262 393 -70 461 -82 572 -96 136 -17 717 -17 848 0 130 17 201 32 196 41 -3 4 -143 11 -312 14 -376 9 -473 17 -832 68 -602 85 -1093 209 -1363 344 -428 214 -524 534 -299 990 141 285 392 545 722 751 105 66 371 202 436 223 l42 14 35 -35 c54 -56 123 -61 265 -17 121 38 186 88 196 150 8 46 19 51 166 74 210 32 437 41 703 25z" />
<path d="M3046 5940 c-57 -22 -84 -45 -101 -83 -26 -61 12 -110 110 -140 154 -48 361 -14 389 64 20 57 -57 142 -154 169 -59 17 -189 11 -244 -10z" />
<path d="M3904 5605 c-96 -49 -59 -179 78 -276 209 -146 397 -77 292 108 -68 120 -278 215 -370 168z" />
<path d="M1702 5511 c-177 -61 -301 -265 -211 -347 36 -32 130 -26 209 13 84 42 154 103 190 167 48 82 35 142 -36 172 -44 19 -88 17 -152 -5z" />
<path d="M2886 5315 c-163 -58 -211 -259 -83 -343 86 -57 230 -25 311 69 40 47 51 86 44 160 -6 56 -33 93 -85 115 -41 18 -137 17 -187 -1z" />
<path d="M4963 5225 c-91 -65 5 -323 147 -395 76 -38 143 -31 170 19 15 29 12 121 -5 172 -50 142 -232 262 -312 204z" />
<path d="M890 5012 c-45 -24 -102 -106 -125 -179 -26 -80 -25 -175 2 -211 52 -71 123 -63 201 23 163 178 102 462 -78 367z" />
<path d="M3978 4661 c-33 -29 -33 -31 -33 -118 0 -75 4 -95 27 -138 91 -174 271 -219 341 -85 67 129 -103 370 -261 370 -32 0 -49 -7 -74 -29z" />
<path d="M2055 4555 c-5 -2 -22 -6 -38 -9 -39 -9 -104 -71 -135 -130 -35 -67 -38 -173 -6 -226 59 -102 185 -105 272 -6 48 55 65 101 65 181 1 78 -25 143 -66 169 -23 15 -75 27 -92 21z" />
</g>
</svg>